<svg xmlns="http://www.w3.org/2000/svg" viewBox="0 0 800 400">
  <!-- Background -->
  <rect width="800" height="400" fill="#f5f7f9" rx="15" ry="15"/>
  
  <!-- App Container -->
  <rect x="50" y="50" width="700" height="300" fill="white" rx="10" ry="10" stroke="#e0e0e0" stroke-width="2"/>
  
  <!-- App Header -->
  <rect x="50" y="50" width="700" height="60" fill="#1976D2" rx="10" ry="10"/>
  
  <!-- App Title -->
  <text x="400" y="88" font-family="Arial, sans-serif" font-size="24" fill="white" text-anchor="middle" font-weight="bold">🎮 AI Trivia Game 🎲</text>
  
  <!-- Topic and Score Display -->
  <rect x="70" y="130" width="200" height="30" fill="#E3F2FD" rx="5" ry="5"/>
  <text x="80" y="150" font-family="Arial, sans-serif" font-size="14" fill="#1976D2">Current Topic: Geography</text>
  
  <rect x="70" y="170" width="120" height="30" fill="#E3F2FD" rx="5" ry="5"/>
  <text x="80" y="190" font-family="Arial, sans-serif" font-size="14" fill="#2E7D32">Score: 3/5</text>
  
  <rect x="620" y="130" width="110" height="35" fill="#4CAF50" rx="5" ry="5"/>
  <text x="675" y="153" font-family="Arial, sans-serif" font-size="14" fill="white" text-anchor="middle">New Game</text>
  
  <!-- Chat Messages -->
  <!-- AI Message -->
  <rect x="70" y="210" width="660" height="60" fill="#F1F8E9" rx="8" ry="8" stroke="#8BC34A" stroke-width="2"/>
  <text x="85" y="240" font-family="Arial, sans-serif" font-size="14" fill="#333">Which country is known as the Land of Fire and Ice?</text>
  
  <!-- User Input -->
  <rect x="70" y="290" width="660" height="40" fill="#f5f5f5" rx="20" ry="20" stroke="#e0e0e0" stroke-width="1"/>
  <text x="400" y="315" font-family="Arial, sans-serif" font-size="14" fill="#888" text-anchor="middle">Type your answer here...</text>
  
  <!-- Languages Support Indicator -->
  <circle cx="100" cy="90" r="15" fill="#E3F2FD"/>
  <text x="100" y="95" font-family="Arial, sans-serif" font-size="14" fill="#1976D2" text-anchor="middle">EN</text>
  
  <circle cx="140" cy="90" r="15" fill="#E3F2FD"/>
  <text x="140" y="95" font-family="Arial, sans-serif" font-size="14" fill="#1976D2" text-anchor="middle">עב</text>
  
  <circle cx="180" cy="90" r="15" fill="#E3F2FD"/>
  <text x="180" y="95" font-family="Arial, sans-serif" font-size="14" fill="#1976D2" text-anchor="middle">عر</text>
  
  <!-- Powered by label -->
  <text x="680" y="88" font-family="Arial, sans-serif" font-size="12" fill="white" text-anchor="middle">Powered by Gemini</text>
</svg>
